<svg width="20" height="15" viewBox="0 0 20 15" fill="none" xmlns="http://www.w3.org/2000/svg">
<path d="M14.5833 0.75C12.9583 0.75 11.2083 1.08333 9.99992 2C8.79158 1.08333 7.04158 0.75 5.41658 0.75C4.20825 0.75 2.92492 0.933333 1.84992 1.40833C1.24159 1.68333 0.833252 2.275 0.833252 2.95V12.35C0.833252 13.4333 1.84992 14.2333 2.89992 13.9667C3.71659 13.7583 4.58325 13.6667 5.41658 13.6667C6.71659 13.6667 8.09992 13.8833 9.21659 14.4333C9.71659 14.6833 10.2833 14.6833 10.7749 14.4333C11.8916 13.875 13.2749 13.6667 14.5749 13.6667C15.4083 13.6667 16.2749 13.7583 17.0916 13.9667C18.1416 14.2417 19.1583 13.4417 19.1583 12.35V2.95C19.1583 2.275 18.7499 1.68333 18.1416 1.40833C17.0749 0.933333 15.7916 0.75 14.5833 0.75ZM17.4999 11.3583C17.4999 11.8833 17.0166 12.2667 16.4999 12.175C15.8749 12.0583 15.2249 12.0083 14.5833 12.0083C13.1666 12.0083 11.1249 12.55 9.99992 13.2583V3.66667C11.1249 2.95833 13.1666 2.41667 14.5833 2.41667C15.3499 2.41667 16.1083 2.49167 16.8333 2.65C17.2166 2.73333 17.4999 3.075 17.4999 3.46667V11.3583Z" fill="url(#paint0_linear_3_820)"/>
<path d="M11.65 6.17504C11.3833 6.17504 11.1416 6.00838 11.0583 5.74171C10.95 5.41671 11.1333 5.05838 11.4583 4.95838C12.7416 4.54171 14.4 4.40838 15.925 4.58338C16.2667 4.62504 16.5167 4.93338 16.475 5.27504C16.4333 5.61671 16.125 5.86671 15.7833 5.82504C14.4333 5.66671 12.9583 5.79171 11.8416 6.15004C11.775 6.15838 11.7083 6.17504 11.65 6.17504Z" fill="url(#paint1_linear_3_820)"/>
<path d="M11.65 8.39172C11.3833 8.39172 11.1416 8.22505 11.0583 7.95838C10.95 7.63338 11.1333 7.27505 11.4583 7.17505C12.7333 6.75838 14.4 6.62505 15.925 6.80005C16.2667 6.84172 16.5167 7.15005 16.475 7.49172C16.4333 7.83338 16.125 8.08338 15.7833 8.04172C14.4333 7.88338 12.9583 8.00838 11.8416 8.36672C11.775 8.38338 11.7083 8.39172 11.65 8.39172Z" fill="url(#paint2_linear_3_820)"/>
<path d="M11.65 10.6084C11.3833 10.6084 11.1416 10.4417 11.0583 10.1751C10.95 9.85006 11.1333 9.49173 11.4583 9.39173C12.7333 8.97506 14.4 8.84173 15.925 9.01673C16.2667 9.05839 16.5167 9.36673 16.475 9.70839C16.4333 10.0501 16.125 10.2917 15.7833 10.2584C14.4333 10.1001 12.9583 10.2251 11.8416 10.5834C11.775 10.6001 11.7083 10.6084 11.65 10.6084Z" fill="url(#paint3_linear_3_820)"/>
<defs>
<linearGradient id="paint0_linear_3_820" x1="9.99575" y1="0.75" x2="9.99575" y2="14.6208" gradientUnits="userSpaceOnUse">
<stop stop-color="#A1C5FB"/>
<stop offset="1" stop-color="#527BE4"/>
</linearGradient>
<linearGradient id="paint1_linear_3_820" x1="13.7533" y1="4.5083" x2="13.7533" y2="6.17504" gradientUnits="userSpaceOnUse">
<stop stop-color="#A1C5FB"/>
<stop offset="1" stop-color="#527BE4"/>
</linearGradient>
<linearGradient id="paint2_linear_3_820" x1="13.7533" y1="6.72498" x2="13.7533" y2="8.39172" gradientUnits="userSpaceOnUse">
<stop stop-color="#A1C5FB"/>
<stop offset="1" stop-color="#527BE4"/>
</linearGradient>
<linearGradient id="paint3_linear_3_820" x1="13.7533" y1="8.94165" x2="13.7533" y2="10.6084" gradientUnits="userSpaceOnUse">
<stop stop-color="#A1C5FB"/>
<stop offset="1" stop-color="#527BE4"/>
</linearGradient>
</defs>
</svg>
