<svg width="80" height="80" viewBox="0 0 80 80" fill="none" xmlns="http://www.w3.org/2000/svg">
<path d="M72.6807 48.2889L72.6361 40.6325L80 36.5119L39.8902 15.3588L0 36.9349L15.993 46.1173L16.0249 51.5735L16.0282 52.0093L16.1743 51.9393C16.0057 52.1681 15.8977 52.4034 15.9009 52.6386C15.9136 55.3222 26.7463 57.4459 40.1163 57.373C53.4799 57.3031 64.2966 55.0553 64.2872 52.378C64.2872 52.1427 64.1632 51.9139 63.9979 51.6786L64.144 51.7486V51.3128L64.1153 45.8345L71.05 41.5199L71.088 48.2987C70.3249 48.6261 69.7941 49.3765 69.8003 50.2542C69.8068 51.4053 70.7415 52.3366 71.9019 52.3272C73.0689 52.3207 73.9942 51.3795 73.9876 50.2317C73.9811 49.3541 73.4471 48.6101 72.6807 48.2889ZM40.1066 55.5256C28.2439 55.5923 18.6225 54.2886 18.6131 52.6259C18.6037 50.963 28.212 49.5672 40.075 49.5067C51.9409 49.44 61.5591 50.7371 61.5656 52.3968C61.5747 54.0536 51.9725 55.4621 40.1066 55.5256ZM63.5683 41.3894C61.9626 39.7011 56.2077 35.2433 39.9985 35.3357C23.767 35.4217 18.0852 39.9334 16.4988 41.6472L16.4893 40.0321C16.4893 40.0321 21.0932 33.0275 39.9862 32.9288C58.8694 32.827 63.5592 39.7776 63.5592 39.7776L63.5683 41.3894ZM70.2136 52.7848L69.3964 64.6412C71.9241 60.67 74.0355 62.1484 74.0355 62.1484L73.9847 52.7656C71.269 53.831 70.2136 52.7848 70.2136 52.7848Z" fill="url(#paint0_linear_3_876)"/>
<defs>
<linearGradient id="paint0_linear_3_876" x1="40" y1="15.3588" x2="40" y2="64.6412" gradientUnits="userSpaceOnUse">
<stop stop-color="#A1C5FB"/>
<stop offset="1" stop-color="#5D85E7"/>
</linearGradient>
</defs>
</svg>
