<svg width="20" height="20" viewBox="0 0 20 20" fill="none" xmlns="http://www.w3.org/2000/svg">
<path d="M10.5416 13.0583C10.6583 12.7583 10.5833 12.4166 10.3499 12.1833L8.60825 10.4666L8.63325 10.4416C10.0833 8.82496 11.1166 6.96663 11.7249 4.99996H13.3416C13.7916 4.99996 14.1666 4.62496 14.1666 4.17496V4.15829C14.1666 3.70829 13.7916 3.33329 13.3416 3.33329H8.33325V2.49996C8.33325 2.04163 7.95825 1.66663 7.49992 1.66663C7.04158 1.66663 6.66658 2.04163 6.66658 2.49996V3.33329H1.65825C1.20825 3.33329 0.833252 3.70829 0.833252 4.15829C0.833252 4.61663 1.20825 4.98329 1.65825 4.98329H10.1416C9.58325 6.59996 8.69992 8.12496 7.49992 9.45829C6.82492 8.71663 6.25825 7.90829 5.78325 7.05829C5.64992 6.81663 5.40825 6.66663 5.13325 6.66663C4.55825 6.66663 4.19159 7.29163 4.47492 7.79163C4.99992 8.73329 5.64159 9.63329 6.39159 10.4666L2.74992 14.0583C2.41659 14.3833 2.41659 14.9166 2.74992 15.2416C3.07492 15.5666 3.59992 15.5666 3.93325 15.2416L7.49992 11.6666L9.18325 13.35C9.60825 13.775 10.3333 13.6166 10.5416 13.0583ZM14.5833 8.33329C14.0833 8.33329 13.6333 8.64163 13.4583 9.11663L10.3999 17.2833C10.1999 17.7916 10.5833 18.3333 11.1249 18.3333C11.4499 18.3333 11.7416 18.1333 11.8583 17.825L12.5999 15.8333H16.5583L17.3083 17.825C17.4249 18.125 17.7166 18.3333 18.0416 18.3333C18.5833 18.3333 18.9666 17.7916 18.7749 17.2833L15.7166 9.11663C15.5333 8.64163 15.0833 8.33329 14.5833 8.33329ZM13.2333 14.1666L14.5833 10.5583L15.9333 14.1666H13.2333Z" fill="url(#paint0_linear_3_825)"/>
<defs>
<linearGradient id="paint0_linear_3_825" x1="9.82911" y1="1.66663" x2="9.82911" y2="18.3333" gradientUnits="userSpaceOnUse">
<stop stop-color="#A1C5FB"/>
<stop offset="1" stop-color="#5D85E7"/>
</linearGradient>
</defs>
</svg>
