<svg width="39" height="40" viewBox="0 0 39 40" fill="none" xmlns="http://www.w3.org/2000/svg">
<path d="M34.125 30.3849C34.125 32.6531 32.3066 34.4909 30.0625 34.4909H8.9375C6.69419 34.4909 4.875 32.6531 4.875 30.3849V9.03342C4.875 6.76524 6.69419 4.92737 8.9375 4.92737H30.0625C32.3066 4.92737 34.125 6.76524 34.125 9.03342V30.3849Z" fill="#0288D1"/>
<path d="M9.75 15.6031H13.8125V29.5637H9.75V15.6031ZM11.7691 13.9607H11.7463C10.5341 13.9607 9.75 13.0475 9.75 11.9068C9.75 10.7415 10.5584 9.85461 11.7926 9.85461C13.0284 9.85461 13.7898 10.7415 13.8125 11.9068C13.8125 13.0467 13.0284 13.9607 11.7691 13.9607ZM29.25 29.5637H25.1875V22.0915C25.1875 20.2864 24.1922 19.0546 22.594 19.0546C21.3744 19.0546 20.7147 19.8857 20.3946 20.6888C20.2776 20.9763 20.3125 21.7712 20.3125 22.1728V29.5637H16.25V15.6031H20.3125V17.7514C20.8983 16.8349 21.8156 15.6031 24.1621 15.6031C27.0693 15.6031 29.2492 17.4508 29.2492 21.5766L29.25 29.5637Z" fill="white"/>
</svg>
