<svg width="460" height="47" viewBox="0 0 460 47" fill="none" xmlns="http://www.w3.org/2000/svg">
<path d="M14.88 27.656H10.08V45H0.672V0.711998H14.496C20.4267 0.711998 24.8853 1.82133 27.872 4.04C30.8587 6.216 32.352 9.52266 32.352 13.96C32.352 16.8613 31.6267 19.2507 30.176 21.128C28.768 23.0053 26.5707 24.6053 23.584 25.928L35.04 45H24.352L14.88 27.656ZM10.08 21H15.008C17.5253 21 19.424 20.4453 20.704 19.336C21.984 18.184 22.624 16.392 22.624 13.96C22.624 11.6987 21.9413 10.056 20.576 9.032C19.2533 7.96533 17.1627 7.432 14.304 7.432H10.08V21ZM69.447 27.272C69.447 27.6987 69.383 28.872 69.255 30.792H48.071C48.3697 33.864 49.2017 36.04 50.567 37.32C51.9323 38.6 53.7883 39.24 56.135 39.24C57.5857 39.24 58.951 39.0053 60.231 38.536C61.511 38.0667 62.8977 37.32 64.391 36.296L68.167 41.416C64.3697 44.488 60.0817 46.024 55.303 46.024C49.9697 46.024 45.8737 44.424 43.015 41.224C40.1563 38.024 38.727 33.6933 38.727 28.232C38.727 24.776 39.3243 21.6827 40.519 18.952C41.7563 16.1787 43.527 14.0027 45.831 12.424C48.1777 10.8453 50.951 10.056 54.151 10.056C58.9723 10.056 62.727 11.5707 65.415 14.6C68.103 17.6293 69.447 21.8533 69.447 27.272ZM60.423 24.712C60.423 19.08 58.3963 16.264 54.343 16.264C52.4657 16.264 50.9937 16.968 49.927 18.376C48.903 19.7413 48.2843 21.9813 48.071 25.096H60.423V24.712ZM96.889 10.056C99.8757 10.056 102.201 10.9733 103.865 12.808C105.529 14.6 106.361 17.096 106.361 20.296V45H97.273V21.832C97.273 19.9973 96.953 18.7173 96.313 17.992C95.7157 17.224 94.7983 16.84 93.561 16.84C92.281 16.84 91.1077 17.2453 90.041 18.056C89.017 18.824 88.0143 19.9973 87.033 21.576V45H77.945V11.08H85.817L86.521 15.368C87.929 13.6187 89.465 12.296 91.129 11.4C92.8357 10.504 94.7557 10.056 96.889 10.056ZM142.848 35.592C142.848 36.9147 143.04 37.896 143.424 38.536C143.808 39.1333 144.448 39.5813 145.344 39.88L143.424 45.896C141.418 45.7253 139.776 45.256 138.496 44.488C137.258 43.72 136.298 42.5253 135.616 40.904C133.397 44.3173 130.005 46.024 125.44 46.024C122.069 46.024 119.381 45.064 117.376 43.144C115.413 41.1813 114.432 38.6427 114.432 35.528C114.432 31.816 115.776 28.9787 118.464 27.016C121.152 25.0533 125.013 24.072 130.048 24.072H133.952V22.408C133.952 20.3173 133.482 18.8667 132.544 18.056C131.605 17.2453 130.048 16.84 127.872 16.84C125.482 16.84 122.496 17.4373 118.912 18.632L116.864 12.552C121.088 10.888 125.269 10.056 129.408 10.056C134.016 10.056 137.408 11.0587 139.584 13.064C141.76 15.0267 142.848 17.9707 142.848 21.896V35.592ZM127.936 39.496C130.496 39.496 132.501 38.2373 133.952 35.72V29.256H130.944C126.037 29.256 123.584 31.0907 123.584 34.76C123.584 36.2533 123.946 37.4267 124.672 38.28C125.44 39.0907 126.528 39.496 127.936 39.496ZM174.135 43.4C172.898 44.2533 171.49 44.8933 169.911 45.32C168.375 45.7893 166.839 46.024 165.303 46.024C161.805 45.9813 159.159 44.9787 157.367 43.016C155.575 41.0533 154.679 38.1733 154.679 34.376V17.48H149.623V11.08H154.679V3.656L163.767 2.568V11.08H171.575L170.679 17.48H163.767V34.184C163.767 35.8053 164.045 36.9787 164.599 37.704C165.154 38.4293 166.007 38.792 167.159 38.792C168.311 38.792 169.591 38.408 170.999 37.64L174.135 43.4ZM193.29 10.056C198.367 10.056 202.335 11.656 205.194 14.856C208.052 18.0133 209.482 22.408 209.482 28.04C209.482 31.624 208.82 34.7813 207.498 37.512C206.218 40.2 204.34 42.2907 201.866 43.784C199.434 45.2773 196.554 46.024 193.226 46.024C188.148 46.024 184.159 44.4453 181.258 41.288C178.399 38.088 176.97 33.672 176.97 28.04C176.97 24.456 177.61 21.32 178.89 18.632C180.212 15.9013 182.09 13.7893 184.522 12.296C186.996 10.8027 189.919 10.056 193.29 10.056ZM193.29 16.84C190.986 16.84 189.258 17.7573 188.106 19.592C186.996 21.384 186.442 24.2 186.442 28.04C186.442 31.88 186.996 34.7173 188.106 36.552C189.258 38.344 190.964 39.24 193.226 39.24C195.487 39.24 197.172 38.344 198.282 36.552C199.434 34.7173 200.01 31.88 200.01 28.04C200.01 24.2 199.455 21.384 198.346 19.592C197.236 17.7573 195.551 16.84 193.29 16.84ZM278.994 45H269.778L268.818 27.016C268.519 21.64 268.37 17.0747 268.37 13.32C268.37 11.3147 268.391 9.864 268.434 8.968L260.946 40.264H252.05L244.05 8.904C244.22 11.5067 244.306 14.4293 244.306 17.672C244.306 21.128 244.22 24.3067 244.05 27.208L243.09 45H233.938L237.394 0.711998H249.362L256.658 31.24L263.506 0.711998H275.602L278.994 45ZM302.237 10.056C307.314 10.056 311.282 11.656 314.141 14.856C317 18.0133 318.429 22.408 318.429 28.04C318.429 31.624 317.768 34.7813 316.445 37.512C315.165 40.2 313.288 42.2907 310.813 43.784C308.381 45.2773 305.501 46.024 302.173 46.024C297.096 46.024 293.106 44.4453 290.205 41.288C287.346 38.088 285.917 33.672 285.917 28.04C285.917 24.456 286.557 21.32 287.837 18.632C289.16 15.9013 291.037 13.7893 293.469 12.296C295.944 10.8027 298.866 10.056 302.237 10.056ZM302.237 16.84C299.933 16.84 298.205 17.7573 297.053 19.592C295.944 21.384 295.389 24.2 295.389 28.04C295.389 31.88 295.944 34.7173 297.053 36.552C298.205 38.344 299.912 39.24 302.173 39.24C304.434 39.24 306.12 38.344 307.229 36.552C308.381 34.7173 308.957 31.88 308.957 28.04C308.957 24.2 308.402 21.384 307.293 19.592C306.184 17.7573 304.498 16.84 302.237 16.84ZM344.796 10.12C345.82 10.12 346.951 10.2907 348.188 10.632L346.652 19.4C345.457 19.1013 344.455 18.952 343.644 18.952C341.639 18.952 340.081 19.656 338.972 21.064C337.863 22.472 336.988 24.6053 336.348 27.464V45H327.26V11.08H335.132L335.964 17.672C336.775 15.2827 337.948 13.4267 339.484 12.104C341.063 10.7813 342.833 10.12 344.796 10.12ZM381.352 27.272C381.352 27.6987 381.288 28.872 381.16 30.792H359.976C360.275 33.864 361.107 36.04 362.472 37.32C363.837 38.6 365.693 39.24 368.04 39.24C369.491 39.24 370.856 39.0053 372.136 38.536C373.416 38.0667 374.803 37.32 376.296 36.296L380.072 41.416C376.275 44.488 371.987 46.024 367.208 46.024C361.875 46.024 357.779 44.424 354.92 41.224C352.061 38.024 350.632 33.6933 350.632 28.232C350.632 24.776 351.229 21.6827 352.424 18.952C353.661 16.1787 355.432 14.0027 357.736 12.424C360.083 10.8453 362.856 10.056 366.056 10.056C370.877 10.056 374.632 11.5707 377.32 14.6C380.008 17.6293 381.352 21.8533 381.352 27.272ZM372.328 24.712C372.328 19.08 370.301 16.264 366.248 16.264C364.371 16.264 362.899 16.968 361.832 18.376C360.808 19.7413 360.189 21.9813 359.976 25.096H372.328V24.712ZM408.794 10.056C411.781 10.056 414.106 10.9733 415.77 12.808C417.434 14.6 418.266 17.096 418.266 20.296V45H409.178V21.832C409.178 19.9973 408.858 18.7173 408.218 17.992C407.621 17.224 406.703 16.84 405.466 16.84C404.186 16.84 403.013 17.2453 401.946 18.056C400.922 18.824 399.919 19.9973 398.938 21.576V45H389.85V11.08H397.722L398.426 15.368C399.834 13.6187 401.37 12.296 403.034 11.4C404.741 10.504 406.661 10.056 408.794 10.056ZM443.105 10.056C448.182 10.056 452.15 11.656 455.009 14.856C457.867 18.0133 459.297 22.408 459.297 28.04C459.297 31.624 458.635 34.7813 457.313 37.512C456.033 40.2 454.155 42.2907 451.681 43.784C449.249 45.2773 446.369 46.024 443.041 46.024C437.963 46.024 433.974 44.4453 431.073 41.288C428.214 38.088 426.785 33.672 426.785 28.04C426.785 24.456 427.425 21.32 428.705 18.632C430.027 15.9013 431.905 13.7893 434.337 12.296C436.811 10.8027 439.734 10.056 443.105 10.056ZM443.105 16.84C440.801 16.84 439.073 17.7573 437.921 19.592C436.811 21.384 436.257 24.2 436.257 28.04C436.257 31.88 436.811 34.7173 437.921 36.552C439.073 38.344 440.779 39.24 443.041 39.24C445.302 39.24 446.987 38.344 448.097 36.552C449.249 34.7173 449.825 31.88 449.825 28.04C449.825 24.2 449.27 21.384 448.161 19.592C447.051 17.7573 445.366 16.84 443.105 16.84Z" fill="#292929"/>
</svg>
